<?xml version="1.0" standalone="no"?>
<!DOCTYPE svg PUBLIC "-//W3C//DTD SVG 1.1//EN" "http://www.w3.org/Graphics/SVG/1.1/DTD/svg11.dtd" >
<!--
2013-9-30: Created.
-->
<svg>
<metadata>
Created by iconfont
</metadata>
<defs>

<font id="iconfont" horiz-adv-x="1024" >
  <font-face
    font-family="iconfont"
    font-weight="500"
    font-stretch="normal"
    units-per-em="1024"
    ascent="896"
    descent="-128"
  />
    <missing-glyph />
    
    <glyph glyph-name="x" unicode="x" horiz-adv-x="1001"
d="M281 543q-27 -1 -53 -1h-83q-18 0 -36.5 -6t-32.5 -18.5t-23 -32t-9 -45.5v-76h912v41q0 16 -0.5 30t-0.5 18q0 13 -5 29t-17 29.5t-31.5 22.5t-49.5 9h-133v-97h-438v97zM955 310v-52q0 -23 0.5 -52t0.5 -58t-10.5 -47.5t-26 -30t-33 -16t-31.5 -4.5q-14 -1 -29.5 -0.5
t-29.5 0.5h-32l-45 128h-439l-44 -128h-29h-34q-20 0 -45 1q-25 0 -41 9.5t-25.5 23t-13.5 29.5t-4 30v167h911zM163 247q-12 0 -21 -8.5t-9 -21.5t9 -21.5t21 -8.5q13 0 22 8.5t9 21.5t-9 21.5t-22 8.5zM316 123q-8 -26 -14 -48q-5 -19 -10.5 -37t-7.5 -25t-3 -15t1 -14.5
t9.5 -10.5t21.5 -4h37h67h81h80h64h36q23 0 34 12t2 38q-5 13 -9.5 30.5t-9.5 34.5q-5 19 -11 39h-368zM336 498v228q0 11 2.5 23t10 21.5t20.5 15.5t34 6h188q31 0 51.5 -14.5t20.5 -52.5v-227h-327z" />
    

    
    <glyph glyph-name="mulu" unicode="&#58880;" d="M918.8-64.20000000000005H104.9c-22.1 0-39.9 17.9-39.9 39.9V713.5c0 22.1 17.9 39.9 39.9 39.9h217.5V834l40.3-0.1v-80.5H662V834l40.3-0.1v-80.5h216.6c22.1 0 39.9-17.9 39.9-39.9v-737.7c0-22.1-17.9-40-40-40z m-5.7 751.9c0 11.1-1.9 17-13 17H702.3v-71.2L662 634v70.6l-299.2 1v-72.1l-40.3 0.5v71.6l-198.8-1c-11 0-12-8.9-12-20v-690.3c0-11.1 0.9-13 12-13h776.4c11 0 13 1.9 13 13V687.7zM382.6 213.89999999999998H832l0.3-47.7H382.7l-0.1 47.7z m0 159.8H832l0.3-48.7H382.7l-0.1 48.7z m0 159.7H832l0.3-47.7H382.7l-0.1 47.7zM180.7 213.89999999999998h141.7l0.4-47.7H180.9l-0.2 47.7z m0 159.8h141.7l0.4-48.7H180.9l-0.2 48.7z m0 159.7h141.7l0.4-47.7H180.9l-0.2 47.7z m0 0"  horiz-adv-x="1024" />

    
    <glyph glyph-name="jianjie" unicode="&#58904;" d="M874.2-63.60000000000002H117.7C88-63.60000000000002 64-39.5 64-9.899999999999977V778.3C64 807.9 88.1 832 117.7 832h756.4c29.7 0 53.7-24.1 53.7-53.7v-788.1c0.1-29.7-23.9-53.8-53.6-53.8z m0 824c0 9.9-8 17.9-17.9 17.9H135.6c-9.9 0-17.9-8-17.9-17.9v-752.3c0-9.9 8-17.9 17.9-17.9h720.6c9.9 0 17.9 8 17.9 17.9V760.4zM746.7 133.5H424.3c-9.9 0-17.9 8-17.9 17.9v17.9c0 9.9 8 17.9 17.9 17.9h322.4c9.9 0 17.9-8 17.9-17.9v-17.9c0-9.9-8-17.9-17.9-17.9z m0 214.9H424.3c-9.9 0-17.9 8-17.9 17.9v17.9c0 9.9 8 17.9 17.9 17.9h322.4c9.9 0 17.9-8 17.9-17.9v-17.9c0-9.9-8-17.9-17.9-17.9z m0 214.9H424.3c-9.9 0-17.9 8-17.9 17.9v17.9c0 9.9 8 17.9 17.9 17.9h322.4c9.9 0 17.9-8 17.9-17.9v-17.9c0-9.8-8-17.9-17.9-17.9zM316.8 133.5h-71.6c-9.9 0-17.9 8-17.9 17.9v17.9c0 9.9 8 17.9 17.9 17.9h71.6c9.9 0 17.9-8 17.9-17.9v-17.9c0.1-9.9-8-17.9-17.9-17.9z m0 214.9h-71.6c-9.9 0-17.9 8-17.9 17.9v17.9c0 9.9 8 17.9 17.9 17.9h71.6c9.9 0 17.9-8 17.9-17.9v-17.9c0.1-9.9-8-17.9-17.9-17.9z m0 214.9h-71.6c-9.9 0-17.9 8-17.9 17.9v17.9c0 9.9 8 17.9 17.9 17.9h71.6c9.9 0 17.9-8 17.9-17.9v-17.9c0.1-9.8-8-17.9-17.9-17.9z m0 0"  horiz-adv-x="1024" />

    
    <glyph glyph-name="15" unicode="&#58893;" d="M511.7 276.6c-21.8 0-36.4 14.5-36.4 36.4 0 14.5 0 58.2 43.6 87.2 7.3 7.3 14.5 7.3 21.8 14.5 29.1 14.5 81.4 35.3 96 86.2 7.3 36.3-4 62.4-25.8 91.5-14.5 21.8-55.6 40.3-99.2 40.3-58.2 0-87.2-21.8-101.8-43.6-14.5-29.1-21.8-58.2-14.5-80 7.3-21.8-7.3-36.3-29.1-43.6-21.8-7.3-43.6 7.3-43.6 21.8-14.5 43.6 0 101.8 36.4 145.4 36.3 43.6 94.5 72.7 159.9 72.7s116.3-21.8 152.7-65.4c36.3-43.6 46.7-101.3 34.1-152.7-16.8-68.3-92.3-123.5-128.6-138-7.3 0-7.3-7.3-14.5-7.3-14.5-7.3-14.5-14.5-14.5-21.8v-7.3c-0.1-21.8-14.7-36.3-36.5-36.3z m0 0M511.1-63.299999999999955c-10.8 0-21.6 5.4-32.4 5.4L107.2 129.79999999999995C80.2 146 64 167.60000000000002 64 194.60000000000002v524C64 783.4 112.6 832 177.4 832h669.4c32.4 0 59.4-10.8 81-32.4 21.6-21.6 32.4-48.6 32.4-81v-524c0-27-16.2-54-37.8-64.8L548.9-57.89999999999998c-16.2 0-27-5.4-37.8-5.4zM177.4 778c-32.4 0-59.4-27-59.4-59.4v-524c0-5.4 5.4-16.2 10.8-16.2l371.5-187.7h21.6l373.5 187.7c5.4 5.4 10.8 10.8 10.8 16.2v524c0 16.2-5.4 32.4-16.2 43.2-10.8 10.8-27 16.2-43.2 16.2H177.4z m0 0M519 131.20000000000005c-21.8 0-36.3 14.5-36.3 36.3 0 21.8 14.5 36.4 36.3 36.4 21.8 0 36.4-14.5 36.4-36.4 0-21.8-14.6-36.3-36.4-36.3z m0 0"  horiz-adv-x="1024" />

    
    <glyph glyph-name="daoshishiming" unicode="&#59021;" d="M391.6 682c-60.2-2.4-108.9-51.1-111.2-111.3-1.4-35.9 13.6-68.3 38.1-90.5-51-23.8-113.6-80-103-179.7 1.2-10.7 10.3-18.6 20.7-18.6 0.7 0 1.5 0 2.1 0.1 11.4 1.2 19.6 11.4 18.4 22.9-12.2 114 96.6 144.5 101.5 145.8 2.8 0.7 5.2 1.9 7.3 3.5 9.8-2.7 20.1-4.1 30.7-4.1 63.9 0 116 51.9 116 116 0 65.5-54.6 118.4-120.6 115.9z m-1.4-190.3c-36.2 2.9-65.3 32-68.2 68.2-3.5 43.7 31.2 80.5 74.2 80.5 41 0 74.5-33.5 74.5-74.5 0-43-36.8-77.7-80.5-74.2zM521.7 438.4c-8.9 7.4-22 6.1-29.3-2.7-7.3-8.9-6.1-22 2.7-29.3 0.4-0.3 44.9-38.1 40-102.3-0.9-11.4 7.7-21.4 19.2-22.3h1.5c10.7 0 19.8 8.3 20.8 19.2 6.5 85.4-52.4 135.3-54.9 137.4zM822.1 613.2H593.8c-10.9 0-20.4-8.3-21.2-19.2-0.9-12.3 8.8-22.4 20.8-22.4h228.8c11.6 0 20.8 9.4 20.8 20.8-0.1 11.6-9.4 20.8-20.9 20.8zM689.2 491.8h-81.8c-11.6 0-20.8-9.4-20.8-20.8 0-11.6 9.4-20.8 20.8-20.8h81.8c11.4 0 20.8 9.2 20.8 20.8 0 11.5-9.3 20.8-20.8 20.8zM957.5 795.8v0.2c-0.3 20.2-17.4 36.5-38.3 36.5H135c-9.7-0.1-19-3.8-26-10.3-7.6-7.1-12-16.9-11.8-27.1l4.7-580v-0.1c0.3-22 14.7-41.9 36.2-50.2l412.2-231.2 378.5 242.3c19.7 8.9 31.7 28 31.4 50.5l-2.7 569.4z m-49.7-574.5l-2.3-0.9-357.1-228.6-387.7 217.5-2 1.1-2.2 0.7c-3 1-4.6 3-4.7 4.4l-4.6 566.9h760.3l2.6-556.4v-0.2c0.1-3.6-1.3-4.1-2.3-4.5z"  horiz-adv-x="1024" />

    
    <glyph glyph-name="zhaoshengkuaixun1" unicode="&#59090;" d="M539.3 293.9v80c-1.2 3.1-3.3 5.4-6.2 6.9-0.8 0.3-2.3 0.6-4.4 0.8H394.5l-10.5-7.7v-80l10.5-10.3h134.3c3.2 1.1 6 3.2 8.3 6 0.6 0.8 1.3 2.3 2.2 4.3z m31.6-20.7c-2-6.3-6.2-11.2-12.3-14.6-2-1.1-5-2.3-8.8-3.4H378.7c-6.4 1.1-11.8 4.5-16.2 9.9-1.4 1.7-3.1 4.5-4.8 8.2V392c1.2 4.9 3.8 9.9 7.9 15.1 0.6 0.8 1.5 1.9 2.7 3l10.5 2.6H550c7.6-1.1 13.4-4.9 17.6-11.2 1.1-2 2.3-5.2 3.5-9.5v-118.8z m7.9 252.9l-5.3-36.1c-1.5-13.5-5-24.2-10.5-32.2-6.8-10.1-16.4-15.6-29-16.7h-15.8c-13.2 0-27.6 1.7-43.5 5.2-5.3 1.1-11.8 2.9-19.7 5.2-7 0-10.5 4.5-10.5 13.7 0 3.7 0.9 6.9 2.6 9.5 5.6 1.1 11.2 1.7 17.1 1.7 5 0 10.7-0.4 17.1-1.3 15.2-2 24.9-3 28.9-3h13.2c9.4 4.6 15.9 12.6 19.7 24.1 2.6 8.1 3.9 18.1 3.9 30.1v46.4c0 4.3-1.8 7.3-5.3 9-1.2 0.6-2.9 1-5.3 1.3H463c-5.6-25.8-15.2-51-29-75.7-10.2-18.6-21.9-36-35.1-52-10.5-12.9-16.4-19.4-17.5-19.4-3.8-2.3-7.3-3.4-10.5-3.4-4.1 0-7.5 1.3-10.1 3.9-2.6 2.6-3.9 6-3.9 10.3 0 2.9 1.2 6.2 3.5 9.9 16.1 15.8 30.6 34.7 43.4 56.8 9.1 15.5 16.8 31.8 23.3 49 2.3 6.9 4.7 13.8 7 20.7h-84.3c-6.4 2.6-9.8 6-10.1 10.3-0.3 4.3-0.4 7.7-0.4 10.3l10.5 10.3h208c6.4-2 11.8-6 16.2-12 1.5-2 3.1-4.9 4.8-8.6v-67.3z m-234.3-79.9c-5-6.9-12.9-13.5-23.7-19.8-14.6-8.6-23.4-14-26.3-16.3v-136.8l-2.6-12.9c-5.9-6.9-13-10.3-21.5-10.3-4.1 0-7.9 0.4-11.4 1.3-5.3 1.7-9.2 3-11.8 3.9-6.4 0.8-11.3 1.7-14.5 2.6-6.1 1.7-9.2 5.2-9.2 10.3 0 6 1.2 10 3.5 12.1 2.3 2 6 3 11 3 2.3 0 4.8-0.1 7.4-0.4 2.6-0.3 5.3-0.6 7.9-0.9 3.5 0 6.5 0.7 9.2 2 2.6 1.3 4.5 3.8 5.7 7.5V397.1c-7-4.9-12.4-8.4-16.2-10.7-7.6-4.6-13.8-6.9-18.5-6.9-6.2 0-11.3 3.3-15.4 9.9 1.2 10.6 7.4 19 18.9 25.4 10.2 5.2 20.6 10.5 31.2 15.9v87.8H234c-3.8 0.6-6.6 2.1-8.3 4.5-1.7 2.4-2.6 5.5-2.6 9.3 0 8.9 3.6 14.6 11 17.2h34.2v67.1c0 2.9 1.3 5.2 3.9 6.9 2.6 1.7 5.7 2.6 9.2 2.6 3.8 0 6.9-0.8 9.4-2.4 2.5-1.6 3.8-3.9 3.8-7.1v-67.1h34.2c3.2-1.1 5.9-3.4 7.9-6.9 2-3.5 3.1-7.1 3.1-10.8 0-7.7-3.7-12.2-11-13.3h-34.2v-74.9l21.1 12.9c3.2 4.9 7.8 7.3 13.6 7.3 4.7 0 8.6-1.6 11.8-4.7 3.1-3.2 4.2-7.5 3.4-12.9z m247.1-321.9H207.4c-22.8 0-40.2 14.8-40.2 31.6V650.2c0 16.8 17.4 31.6 40.2 31.6H626c22.7 0 40.2-14.9 40.2-31.7v-335.3c0-11.1 9.2-20.1 20.6-20.1 11.4 0 20.6 9 20.6 20.1V650.2c-0.1 40.4-37.1 71.8-81.4 71.9H207.4c-44.3-0.1-81.3-31.5-81.4-71.8v-494.4c0.1-40.3 37-71.8 81.3-71.8h384.3c11.4 0 20.6 9 20.6 20.1 0 11.1-9.2 20.1-20.6 20.1zM676.7 832c-1.7 0-2.9 0-3.6-0.1H255.6c-9.1 0-16.5-7.2-16.5-16.1v-7.3c0-8.9 7.4-16.1 16.5-16.1h419c0.5 0.1 0.8 0.1 2.1 0.1 7.3 0.1 34.1-1.4 56.5-14.6 22.2-13.5 42.5-35.3 43.1-88.6v-371.9l40.5-50.3V689.4c0.7 64.3-29.7 103.9-62.9 122.5-32.9 18.8-66 20-77.2 20.1z m185.2-824.5l13.7 29.9c-0.3-0.1-0.3-0.1-1.5-0.3-1.2-0.2-2.6-0.5-4.2-0.8-4.5-0.9-9.6-1.9-15-3-15.6-3.1-31.2-6.2-45.8-9.2-4.3-0.9-8.2-3.1-11.2-6.3l-44.5-48.5 33.1-3.3-47.8 79.8c-3.9 6.5-11.3 10.4-19 9.9-0.6 0-1-0.1-2-0.1 0 0-3.8-0.2-4.9-0.2-1.1 0-2.2 0-4.9 0.2 0 0-1.4 0.1-2 0.1-7.7 0.5-15.1-3.4-19-9.9L639-33.89999999999998l33.1 3.3c-0.2 0.2-0.2 0.2-1 1.1-1.1 1.2-1.1 1.2-2.8 3.1-3 3.3-6.4 7-10.1 11-10.4 11.4-20.9 22.8-30.6 33.4-2.9 3.2-6.8 5.4-11.2 6.3-14.7 3-30.3 6.1-45.8 9.2l-15 3c-1.6 0.3-3 0.6-4.2 0.8-1.2 0.3-1.2 0.3-1.5 0.3l13.5-30.2 51.3 82.7c5.9 9.5 2.8 21.9-6.9 27.7-9.7 5.8-22.4 2.7-28.3-6.8l-51.3-82.7c-7.4-11.9-0.5-27.4 13.6-30.2 0.3-0.1 0.3-0.1 1.5-0.3 1.2-0.2 2.6-0.5 4.2-0.8l15-3c15.5-3.1 31.1-6.2 45.7-9.1L597-9c9.8-10.6 20.2-22 30.6-33.4 3.7-4 7-7.7 10.1-11 1.7-1.8 1.7-1.8 2.8-3.1 0.8-0.9 0.8-0.9 1-1.1 9.3-10.2 26.1-8.5 33.1 3.3l47.8 79.8-17.8 10.2-1.3-20.1c0.5 0 0.9-0.1 1.7-0.1 0 0 5.3-0.3 7.7-0.3 2.4 0 4.1 0.1 7.7 0.3 0 0 1.3 0.1 1.7 0.1l-1.3 20.1-17.8-10.2 47.8-79.8c7.1-11.8 23.8-13.4 33.1-3.3l44.5 48.5-11.2-6.3c14.6 2.9 30.2 6.1 45.7 9.1 5.4 1.1 10.5 2.1 15 3 1.6 0.3 3 0.6 4.2 0.8 1.2 0.2 1.2 0.2 1.5 0.3 13.9 2.7 20.9 18 13.7 29.9l-52 86.8c-5.8 9.6-18.4 12.8-28.2 7.2-9.8-5.6-13.1-17.9-7.4-27.5l52.2-86.7z m-149.1 55.3c-65.7 0-119 52.1-119 116.4s53.3 116.4 119 116.4 119-52.1 119-116.4-53.3-116.4-119-116.4z m0-40.2c88.4 0 160.1 70.1 160.1 156.6s-71.7 156.6-160.1 156.6c-88.5 0-160.2-70.1-160.2-156.6s71.7-156.6 160.2-156.6z m-73.3 127.1l52.3-37.1c9.2-6.5 22.1-4.5 28.8 4.5 6.7 9 4.7 21.6-4.5 28.1l-52.3 37.1c-9.2 6.5-22.1 4.5-28.8-4.5-6.7-9-4.7-21.6 4.5-28.1z m114.3 72.5l-61.4-82.7c-6.7-9-4.7-21.6 4.5-28.1s22.1-4.5 28.8 4.5l61.4 82.7c6.7 9 4.7 21.6-4.6 28.1-9.2 6.5-22 4.5-28.7-4.5z m0 0"  horiz-adv-x="1024" />

    
    <glyph glyph-name="tuijian" unicode="&#59393;" d="M468.489 383.95a42.52 42.52 0 1 1 87.022 0 42.52 42.52 0 1 1-87.022 0zM512 537.996c-12.35 0-24.707-0.163-37.039-0.485 41.844 59.948 85.752 111.484 128.096 149.86 59.291 53.738 102.104 68.394 118.234 59.082 16.202-9.354 24.892-54.011 7.784-132.69-3.602-16.567 6.908-32.919 23.476-36.52 16.566-3.604 32.918 6.906 36.52 23.475 28.34 130.341-4.523 180.11-37.082 198.908-89.415 51.624-237.966-87.626-353.706-266.23-26.4-2.163-52.338-5.082-77.456-8.757-11.189 31.505-19.984 61.704-26.069 89.88-16.891 78.216-8.178 122.623 7.951 131.934 7.885 4.554 21.743 3.07 39.019-4.173 22.63-9.487 49.959-28.418 79.034-54.746 12.567-11.381 31.981-10.417 43.362 2.151 11.38 12.567 10.417 31.981-2.151 43.362C363.734 822.003 304.446 818.35 272.01 799.624c-65.069-37.568-58.254-152.8-12.413-285.808-131.16-27.517-227.577-78.26-227.577-150.884 0-37.597 26.67-90.941 153.72-131.567a30.666 30.666 0 0 1 9.357-1.468c12.994 0 25.064 8.319 29.233 21.358 5.164 16.148-3.741 33.427-19.89 38.59-76.693 24.524-111.021 54.38-111.021 73.087 0 18.624 34.1 48.374 110.282 72.853 23.808 7.65 49.958 14.293 77.931 19.88 9.767-23.719 20.563-47.712 32.218-71.671-37.537-77.058-64.964-152.16-79.107-217.65-28.02-129.744 4.8-179.322 37.266-198.067 10.832-6.255 24.659-10.83 41.944-10.828 34.34 0.002 82.312 18.063 147.446 76.89 12.582 11.364 13.57 30.777 2.206 43.36s-30.777 13.57-43.36 2.206c-58.937-53.23-101.503-67.714-117.537-58.455-7.896 4.559-13.544 17.324-15.905 35.945-3.091 24.388-0.34 57.58 7.954 95.989 10.607 49.113 29.424 104.365 54.88 161.997 3.535-6.346 7.12-12.67 10.753-18.962 61.554-106.616 133.091-199.443 201.433-261.382 65.521-59.383 113.726-77.594 148.21-77.592 17.279 0.001 31.117 4.574 41.955 10.832 15.093 8.713 34.874 27.177 43.404 65.65 5.528 24.932 5.883 55.802 1.055 91.753-9.212 68.605-36.316 152.2-78.382 241.748-7.209 15.346-25.493 21.941-40.839 14.733-15.345-7.208-21.942-25.494-14.732-40.839 38.87-82.748 64.831-162.233 73.102-223.813 5.048-37.589 4.33-85.3-14.306-96.06-7.895-4.56-21.774-3.067-39.083 4.2-22.666 9.517-50.036 28.495-79.151 54.882-63.744 57.773-131.04 145.346-189.492 246.589a1379.626 1379.626 0 0 0-31.072 56.83 1380.328 1380.328 0 0 0 31.072 56.833 1397.386 1397.386 0 0 0 20.032 33.587A1369.594 1369.594 0 0 0 512 476.598c116.905 0 226.393-14.494 308.297-40.81 76.182-24.48 110.282-54.23 110.282-72.854 0-9.068-8.155-20.285-22.964-31.582-19.41-14.807-49.296-28.978-86.427-40.98-16.134-5.214-24.984-22.52-19.77-38.652 5.215-16.133 22.526-24.98 38.653-19.769 125.552 40.581 151.907 93.63 151.907 130.984 0 114.928-241.459 175.06-479.977 175.06z m-162.362-85.474a1151.252 1151.252 0 0 0-5.825 13.414c4.778 0.637 9.6 1.24 14.449 1.82a1436.993 1436.993 0 0 1-8.624-15.234z"  horiz-adv-x="1024" />

    
    <glyph glyph-name="fenshuxian-" unicode="&#58899;" d="M931.6-60.89999999999998H164.8c-55.3 0-100.3 49.2-100.3 109.6V651c0 17.3 12.8 31.3 28.7 31.3s28.7-14 28.7-31.3v-602.2c0-25.9 19.3-47 43-47h766.8c15.8 0 28.7-14 28.7-31.3-0.2-17.4-13-31.4-28.8-31.4z m0 0M333.2 52.39999999999998h-74c-35 0-63.5 28.5-63.5 63.5V376.1c0 35 28.5 63.5 63.5 63.5h74c35 0 63.5-28.5 63.5-63.5v-260.2c0-35-28.5-63.5-63.5-63.5z m-74 324.5c-0.4 0-0.8-0.5-0.8-0.8v-260.2c0-0.4 0.5-0.8 0.8-0.8h74c0.4 0 0.8 0.5 0.8 0.8V376.1c0 0.4-0.5 0.8-0.8 0.8h-74z m314.6-324.5h-74c-35 0-63.5 28.5-63.5 63.5v652c0 35 28.5 63.5 63.5 63.5h74c35 0 63.5-28.5 63.5-63.5V116c0-35.1-28.5-63.6-63.5-63.6z m-74 716.3c-0.4 0-0.8-0.5-0.8-0.8V116c0-0.4 0.5-0.8 0.8-0.8h74c0.4 0 0.8 0.5 0.8 0.8V767.9c0 0.4-0.5 0.8-0.8 0.8h-74z m322.4-716.3h-74c-35 0-63.5 28.5-63.5 63.5v391c0 35 28.5 63.5 63.5 63.5h74c35 0 63.5-28.5 63.5-63.5v-391c0-35-28.5-63.5-63.5-63.5z m-74 455.4c-0.4 0-0.8-0.5-0.8-0.8v-391c0-0.4 0.5-0.8 0.8-0.8h74c0.4 0 0.8 0.5 0.8 0.8V507c0 0.4-0.5 0.8-0.8 0.8h-74z m0 0"  horiz-adv-x="1024" />

    
    <glyph glyph-name="zhengce" unicode="&#58881;" d="M959.6 576.2v-541.5c0-53.3-43.9-97.2-97.2-97.2h-666c-53.3 0-97.2 43.9-97.2 97.2V734.9c0 53.3 43.9 97.2 97.2 97.2h571.9l191.3-255.9M215.2 774.1c-15.4 0-30.2-6.1-41.1-17-10.9-10.9-17-25.7-17-41.1v-661c0-15.4 6.1-30.2 17-41.1 10.9-10.9 25.7-17 41.1-17h599.5c15.4 0 58.2 6.1 69.1 17 10.9 10.9 17 25.7 17 41.1V521.6H782.1c-20.4 0-45.5 4.7-58 19.6-11.8 14.1-19.6 37.6-19.6 58V774.1H215.2z m552.5-39.2v-136.4c0-10.2 0.4-16 0-22.6 0 0 11.9 0.1 21.3 0.1h107.2L767.7 734.9z m-66.1-451.6c0-15.7-3.1-29.8-9.4-43.9l76.1-128.6c5.5-10.2 2.4-23.5-7.8-27.4-4.7-2.4-10.2-3.1-15.7-2.4L686 96.70000000000005l-15.7-58.8c-3.1-10.2-14.9-16.5-25.9-14.1-5.5 2.4-11 5.5-13.3 11l-47.8 80-48.6-81.5c-5.5-10.2-18-13.3-28.2-7.8-5.5 2.4-9.4 7.8-10.2 12.5l-15.7 58.8-58.9-15.8c-11-3.1-22.7 3.1-25.9 14.1-0.8 6.3 0 12.5 3.1 16.5l74.5 128.6c-7.1 14.1-9.4 29-9.4 43.9 0 32.1 13.3 61.2 35.3 81.5 21.2 21.2 51 34.5 83.9 34.5s61.9-13.3 83.9-34.5c21.2-20.4 34.5-49.4 34.5-82.3zM602.8 168l40.8-69.8 7.8 29.8c3.1 10.2 14.9 16.5 25.9 14.1l30.6-8.6-40.8 69c-18-18-40.8-27.4-64.3-32.1h-0.8l0.8-2.4z m-104.3 33.7l-39.2-67.4 30.6 7.8c11 3.1 23.5-3.1 25.9-14.1l9.4-29.8L566 168l-0.8 0.8c-25.9 3.9-48.6 14.1-66.7 32.9z m138.8 135.7c-13.3 13.3-32.9 22-54.1 22-21.2 0-40.8-8.6-54.1-22-13.3-13.3-22.7-32.9-22.7-53.3 0-15.7 4.7-29 12.5-40.8l0.8-0.8c25.1-40.8 84.7-43.9 117.6-11l0.8 0.8c13.3 13.3 21.2 32.1 21.2 51.8 0.8 20.3-8.6 40-22 53.3zM531.5 579.7H215.2c-11 0-19.6 8.6-19.6 19.6 0 11 8.6 19.6 19.6 19.6h316.3c11 0 19.6-8.6 19.6-19.6 0-11-9.4-19.6-19.6-19.6zM215.2 462.8h257.5c11 0 19.6-8.6 19.6-19.6 0-11-8.6-19.6-19.6-19.6H215.2c-5.2-0.1-10.2 2-13.9 5.7-3.7 3.7-5.7 8.7-5.7 13.9 0.8 11 9.4 19.6 19.6 19.6z m0-155.2h160.2c11 0 19.6-8.6 19.6-19.6 0-11-8.6-19.6-19.6-19.6H215.2c-5.2-0.1-10.2 2-13.9 5.7s-5.7 8.7-5.7 13.9c0.8 11 9.4 19.6 19.6 19.6z m0 0"  horiz-adv-x="1024" />

    
    <glyph glyph-name="bumentiaoji" unicode="&#58882;" d="M900.2 220.29999999999995H796l-256.2 256c81.8 16.8 143.5 89.4 143.5 176 0 99.1-80.7 179.7-179.9 179.7s-179.9-80.6-179.9-179.7c0-86.7 61.7-159.2 143.5-176l-256.2-256h-87.2c-32.9 0-59.5-26.6-59.6-59.5v-165.5c0-32.8 26.7-59.5 59.6-59.5h776.7c32.9 0 59.5 26.6 59.6 59.5V160.79999999999995c-0.1 32.8-26.8 59.5-59.7 59.5z m-525.6 432c0 71 57.8 128.7 128.8 128.7 71 0 128.8-57.7 128.8-128.7 0-71-57.8-128.7-128.8-128.7-71 0-128.8 57.7-128.8 128.7z m128.8-211.8l220.4-220.2H283l220.4 220.2z m405.3-445.2c-0.1-4.7-3.8-8.4-8.5-8.5H123.6c-4.7 0.1-8.4 3.8-8.5 8.5V160.79999999999995c0 4.6 3.9 8.5 8.5 8.5h776.6c4.6 0 8.5-3.9 8.5-8.5v-165.5z m0 0"  horiz-adv-x="1024" />

    
    <glyph glyph-name="shipin" unicode="&#59064;" d="M425.472 624.64c-28.672 0-57.344-20.48-57.344-66.56v-218.624c0-46.08 28.672-66.56 57.344-66.56 12.8 0 25.6 3.584 38.4 11.264l189.44 109.568c23.04 13.312 36.352 33.28 36.352 55.296 0 21.504-13.312 41.984-36.352 55.296l-189.44 109.568c-12.8 7.168-25.6 10.752-38.4 10.752z m-8.704-66.56c0 6.656 1.024 18.432 9.216 18.432 2.048 0 7.168-0.512 14.336-4.608l189.44-109.568c8.704-5.12 12.8-10.24 12.8-13.824 0-3.072-4.096-8.704-12.8-13.824l-189.44-109.568c-7.168-4.096-12.288-4.608-14.336-4.608-7.68 0-9.216 11.776-9.216 18.432v219.136zM782.336 715.776v-74.24c0-3.072 2.048-5.12 5.12-5.12h74.24c3.072 0 5.12 2.048 5.12 5.12v74.24c0 3.072-2.048 5.12-5.12 5.12h-74.24c-3.072 0-5.12-2.048-5.12-5.12zM782.336 564.736v-74.24c0-3.072 2.048-5.12 5.12-5.12h74.24c3.072 0 5.12 2.048 5.12 5.12v74.24c0 3.072-2.048 5.12-5.12 5.12h-74.24c-3.072 0-5.12-2.56-5.12-5.12zM782.336 413.184v-74.24c0-3.072 2.048-5.12 5.12-5.12h74.24c3.072 0 5.12 2.048 5.12 5.12v74.24c0 3.072-2.048 5.12-5.12 5.12h-74.24c-3.072 0-5.12-2.048-5.12-5.12zM225.28 641.536v74.24c0 3.072-2.048 5.12-5.12 5.12h-74.24c-3.072 0-5.12-2.048-5.12-5.12v-74.24c0-3.072 2.048-5.12 5.12-5.12h74.24c3.072 0 5.12 2.048 5.12 5.12zM225.28 36.352v74.24c0 3.072-2.048 5.12-5.12 5.12h-74.24c-3.072 0-5.12-2.048-5.12-5.12v-74.24c0-3.072 2.048-5.12 5.12-5.12h74.24c3.072 0 5.12 2.048 5.12 5.12zM963.584 196.608V751.616c0 46.08-37.888 83.968-83.968 83.968h-735.232c-46.08 0-83.968-37.888-83.968-83.968v-735.232c0-46.08 37.888-83.968 83.968-83.968h555.008c1.536 0 2.56 0.512 3.584 1.536l259.072 259.072c1.024 1.024 1.536 2.56 1.536 3.584z m-60.928 15.36L686.08-4.608v165.376c0 28.16 23.04 51.2 51.2 51.2h165.376z m-271.872-51.2v-173.056h-486.4c-15.872 0-28.672 12.8-28.672 28.672V751.616c0 15.872 12.8 28.672 28.672 28.672h735.232c15.872 0 28.672-12.8 28.672-28.672v-484.352H737.28c-58.88 0-106.496-47.616-106.496-106.496zM225.28 187.392v74.24c0 3.072-2.048 5.12-5.12 5.12h-74.24c-3.072 0-5.12-2.048-5.12-5.12v-74.24c0-3.072 2.048-5.12 5.12-5.12h74.24c3.072 0 5.12 2.56 5.12 5.12zM225.28 490.496v74.24c0 3.072-2.048 5.12-5.12 5.12h-74.24c-3.072 0-5.12-2.048-5.12-5.12v-74.752c0-3.072 2.048-5.12 5.12-5.12h74.24c3.072 0 5.12 2.56 5.12 5.632zM225.28 338.944v74.24c0 3.072-2.048 5.12-5.12 5.12h-74.24c-3.072 0-5.12-2.048-5.12-5.12v-74.24c0-3.072 2.048-5.12 5.12-5.12h74.24c3.072 0 5.12 2.048 5.12 5.12z"  horiz-adv-x="1024" />

    
    <glyph glyph-name="lianxifangshi" unicode="&#58944;" d="M63.2-32.39999999999998v1.5c0 136 69.4 214.8 195.5 278l0.9 0.4 0.8-0.6c68-62 156.5-96 249.5-96 93.1 0 181.7 34.3 249.5 96.5l0.8 0.7 0.9-0.4c127.7-63.5 198.1-142.4 198.1-278.5v-1.5h-896v-0.1z m849.6 38.8c-2 85.3-64.8 151.8-146.9 196.9-63.8-53.3-162.3-87.7-251-87.7-101.6 0-180.3 24.7-255 80.1-61.6-33.8-137-80.4-148.6-189.3h801.5zM510 223.29999999999995c-139.5 0-253 111.2-253 247.9 0 136.5 113.4 247.6 252.9 247.6 139.2 0 252.4-111 252.4-247.6 0.1-136.6-113.2-247.9-252.3-247.9z m-0.5 452.3c-112.9 0-208.3-93.3-208.3-203.8 0-112.4 93.4-203.8 208.3-203.8 114.6 0 207.8 91.4 207.8 203.8 0.1 112.3-93.2 203.8-207.8 203.8z m289.1-300.5V605.5l8.4-0.4c-53.5 113.5-169.8 186.6-297.1 186.6-127.6 0-244.1-73.1-297.5-186.6l8.9 0.4v-230.4h-1.6C154.8 375.1 102 426.7 102 490c0 41.9 23 80.5 60.1 100.9 51 144.3 191 241.8 347.8 241.8 156.9 0 296.8-97.5 347.9-242.5 36.7-19.7 59.9-58.4 59.9-100.1 0-63.3-52.8-114.9-117.6-114.9l-1.5-0.1z m0 0"  horiz-adv-x="1024" />

    
    <glyph glyph-name="xiaoyuanfengguang" unicode="&#58883;" d="M932.2 129.20000000000005H90.3c-14.8 0-26.8-12-26.8-26.8s12-26.7 26.8-26.7h841.9c14.8 0 26.8 12 26.8 26.7 0 14.8-12 26.8-26.8 26.8z m-80.2-107H170.5c-14.8 0-26.7-12-26.7-26.7 0-14.8 12-26.7 26.7-26.7H852c14.8 0 26.7 12 26.7 26.7s-12 26.7-26.7 26.7z m26.1 321.5c2.2-0.6 4.5-1 6.8-1 8.4 0 16.6 3.9 21.8 11.2 34.4 48 52.7 104.5 52.7 163.4 0 154.9-126 280.8-280.8 280.8-111.2 0-212.9-67.5-257.2-169l-40.8 57.1c-5.2 7.3-12.4 11-22.6 11.2-8.9-0.3-17.1-5-21.8-12.6l-267.5-428c-7.8-12.5-4-29 8.5-36.9 4.4-2.8 9.3-4.1 14.2-4.1 8.9 0 17.6 4.4 22.7 12.6l246.3 394 244.2-341.9c4.8-6.7 12.5-10.9 20.8-11.2 8.4-0.6 16.2 3.2 21.6 9.6l112 134.6 140.2-186.9c8.8-11.8 25.6-14.2 37.4-5.3 11.8 8.8 14.2 25.6 5.4 37.4l-63.9 85z m-19.4 26l-77.3 103c-4.9 6.6-12.5 10.5-20.7 10.7-8.4 0.1-16-3.3-21.2-9.6L628 339.9 453.3 584.5c5.9 2.9 10.8 7.7 13.3 14.2 33.6 87.3 118.7 145.9 212 145.9 125.4 0 227.4-102 227.4-227.4 0-47.6-14.8-93.3-42.7-132.2-3.4-4.6-4.5-10-4.6-15.3z m0 0"  horiz-adv-x="1024" />

    
    <glyph glyph-name="xuexiao" unicode="&#58884;" d="M949.9-29.600000000000023h-387V129.20000000000005c0 30.1-25.4 54.7-56.6 54.7-30.3 0-55-23.8-55-53.2v-160.3h-397V375h253.4v202.1l172.5 131.6v157.8h215.5v-125.6h-151.5v-31.9l170.3-125V374.79999999999995H950l-0.1-404.4z m-344.1 42.9H907V332.1h-235.4v230.3l-159.4 116.8-161.6-123.3V332.1H97.2v-318.7h311.2V130.79999999999995c0 52.9 43.9 96.1 97.9 96.1 54.8 0 99.5-43.7 99.5-97.6v-116z m-82.7 770.5h129.7v38.7h-129.7v-38.7zM508.3 386.4c-54 0-97.9 43-97.9 96.1 0 52.9 43.9 96.1 97.9 96.1 54 0 97.9-43 97.9-96.1 0-52.9-43.9-96.1-97.9-96.1z m0 149.3c-30.3 0-54.9-23.8-54.9-53.2 0-29.3 24.7-53.2 54.9-53.2 30.3 0 54.9 23.8 54.9 53.2 0.1 29.3-24.6 53.2-54.9 53.2z"  horiz-adv-x="1448" />

    
    <glyph glyph-name="yingxinbaogao" unicode="&#58885;" d="M192 832h640.1v-64H192zM256 704h-64v-767.5l64 25.6 256 102.2L768.1-38l64-25.6V704H256z m512.1-673.1L511.9 133.20000000000005 256 30.899999999999977V640h512.1v-609.1z"  horiz-adv-x="1024" />

    
    <glyph glyph-name="jiuyechuangye" unicode="&#58888;" d="M880.5 688.3H646.8c-7.6 61.4-65.2 109.3-135 109.3s-127.4-47.9-135-109.3H143.1c-43.9 0-79.6-35.7-79.6-99.6v-592.2c0-23.9 35.7-59.6 79.6-59.6h737.3c43.9 0 79.6 35.7 79.6 59.6V588.7c0 63.9-35.7 99.6-79.5 99.6zM139 368.9c-2.8 0-5.4 1.1-7.2 3.1V608.7c0 6.2 5.1 11.4 11.4 11.4h737.3c6.2 0 11.4-5.1 11.4-11.4v-236.8c-1.8-1.8-4.4-3.1-7.2-3.1H139z m372.8 362.2c32.4 0 59.5-18.3 67.1-42.8H444.7c7.6 24.4 34.7 42.8 67.1 42.8zM880.5 5H143.1c-6.2 0-11.4 5.1-11.4 11.4V307.5c2.4-0.2 4.8-0.7 7.2-0.7h155.9v-28.5c0-17.1 13.9-31.1 31.1-31.1 17.1 0 31.1 13.9 31.1 31.1v28.5h309.5v-28.5c0-17.1 13.9-31.1 31.1-31.1s31.1 13.9 31.1 31.1v28.5h155.9c2.4 0 4.9 0.5 7.2 0.7v-291.1c0.1-6.2-5.1-11.4-11.3-11.4z m0 0M561.8 491.9H461.7c-17.1 0-31.1-13.9-31.1-31.1 0-17.1 13.9-31.1 31.1-31.1h100.1c17.1 0 31.1 13.9 31.1 31.1-0.1 17.1-13.9 31.1-31.1 31.1z m0 0"  horiz-adv-x="1024" />

    
    <glyph glyph-name="shuji" unicode="&#59037;" d="M927.5 106.20000000000005V776c0 30.8-26 55.8-56.8 55.8H153.9c-30.8 0-55.8-25-55.8-55.8v-753.5c0-46 37.7-85.7 83.7-85.7h731c7.8 0 14.2 8.4 14.2 16.2 0 7.8-6.4 14.2-14.2 14.2h-14.2V78.70000000000005c15.7-0.5 28.9 12.3 28.9 27.5z m-788.3 657c0 15.2 12.7 27.9 27.9 27.9h42.6v-671.8h-27.9c-21.5 0-26.4 0-43.1-11.7V763.2h0.5zM858-20.700000000000045H181.8c-30.8 0-46 18.6-46 49.5 0 30.8 15.2 49.5 46 49.5H858v-99zM250.8 118.89999999999998V791.1H858c15.2 0 27.9-12.7 27.9-27.9v-643.9h-635v-0.4zM662 476.3H397.1c-7.8 0-14.2-6.9-14.2-15.7 0-8.8 6.4-15.7 14.2-15.7H662c7.8 0 14.2 6.9 14.2 15.7 0 8.9-6.4 15.7-14.2 15.7z m91.9 83.7H397.1c-7.8 0-14.2-6.9-14.2-15.7 0-8.8 6.4-15.7 14.2-15.7h356.8c7.8 0 14.2 6.9 14.2 15.7 0 8.9-6.4 15.7-14.2 15.7z m-356.8 52.9h167.5c7.8 0 14.2 6.9 14.2 15.2 0 8.3-6.4 15.2-14.2 15.2H397.1c-7.8 0-14.2-6.9-14.2-15.2 0-8.3 6.4-15.2 14.2-15.2z m0 0"  horiz-adv-x="1024" />

    
    <glyph glyph-name="youxiu" unicode="&#58974;" d="M368.445 707.246H424.5l-15.959-63.345V347.9h-52.782V587.336h-27.003v48.2h11.05c4.904 0 9 4.121 12.277 12.354l16.363 59.356z m276.578-6.37h47.872v-52.587c0-18.857-9.539-28.283-28.647-28.283h-31.892v-217.922c0-5.048 3.128-7.573 9.4-7.573h54.42v-45.02h-86.333c-20.188 0-30.285 8.77-30.285 26.297V620h-36.812l-19.231-213.135c-3.559-39.306-14.183-58.967-31.923-58.967h-65.46v45.02h28.642c9.006 0 14.182 13.942 15.544 41.825l18.826 185.252h-63.012v48.205h67.922l4.102 39.04h52.766l-3.686-39.04h91.653c4.09 0 6.134 3.185 6.134 9.559v23.117zM959.33 102.236L795.637 402.55a302.06 302.06 0 0 1 26.004 122.982c0 168.54-137.687 305.178-307.553 305.178-169.877 0-307.594-136.638-307.594-305.178 0-44.805 9.728-87.352 27.202-125.67L69.325 102.374a27.607 27.607 0 0 1 2.217-30.095 28.022 28.022 0 0 1 28.57-10.296l140.436 31.949 48.051-132.813a27.955 27.955 0 0 1 24.264-18.294 27.991 27.991 0 0 1 26.716 14.53l143.109 264.566a316.672 316.672 0 0 1 31.406-1.587c9.713 0 19.313 0.476 28.805 1.362l146.202-264.54a28.027 28.027 0 0 1 26.716-14.331c10.987 0.86 20.465 8.023 24.161 18.294l48.062 132.813 140.436-31.95c10.752-2.575 21.857 1.567 28.503 10.246a27.566 27.566 0 0 1 2.35 30.008z m-639.325-63.641l-35.19 97.28c-4.797 13.225-18.775 20.92-32.583 17.664L148.347 129.92l118.37 214.21a308.009 308.009 0 0 1 158.627-110.868L320.005 38.595z m-57.313 486.937c0 137.534 112.783 249.421 251.402 249.421 138.604 0 251.372-111.887 251.372-249.42S652.703 276.11 514.094 276.11c-138.624 0-251.402 111.888-251.402 249.421zM776.335 153.54a27.873 27.873 0 0 1-32.588-17.664l-35.456-97.992-107.628 194.74A307.994 307.994 0 0 1 762.839 346.03l117.862-216.212-104.366 23.72z"  horiz-adv-x="1024" />

    
    <glyph glyph-name="yingxinzhushou" unicode="&#59048;" d="M511.6-62.4C401-62.4 300-22 221.9 44.5c-17.3 12.3-32.7 27-44.6 44-70 78.9-112.8 182.5-112.8 296.2 0 246.9 200.2 447.1 447.1 447.1s447.1-200.2 447.1-447.1c0-247-200.2-447.1-447.1-447.1z m0 849.5c-222.3 0-402.4-180.1-402.4-402.4 0-88.3 28.8-169.7 77-236.1 38-13.2 106-32.2 185.5-32.2 97.8 0 212.3 89.4 306.7 89.4 78.7 0 143.1-23.3 172.8-36.3 39.5 62.2 62.7 135.9 62.7 215.1 0.1 222.3-180.1 402.5-402.3 402.5z m268.3-536.6h-44.7L712.8 340l-22.4-89.4h-44.7L601 474.1h44.7l24.8-124.2 19.9 79.5h44.7l19.9-79.5 24.9 124.2h44.7l-44.7-223.6z m-357.7 0V474.1h134.1v-44.7h-89.4v-44.7h89.4V340h-89.4v-44.7h89.4v-44.7H422.2z m-89.5 0l-89.4 149.1v-149.1h-44.7V474.1h44.7l89.4-149v149h44.7v-223.6h-44.7z m0 0"  horiz-adv-x="1024" />

    
    <glyph glyph-name="jiuyexinxidengji" unicode="&#60175;" d="M898.133333 832H125.866667C91.733333 832 64 804.266667 64 770.133333V0c0-34.133333 27.733333-61.866667 61.866667-61.866667h772.266666c34.133333 0 61.866667 27.733333 61.866667 61.866667V770.133333C960 804.266667 932.266667 832 898.133333 832z m19.2-832c0-10.666667-8.533333-19.2-19.2-19.2H125.866667c-10.666667 0-19.2 8.533333-19.2 19.2V770.133333c0 10.666667 8.533333 19.2 19.2 19.2h772.266666c10.666667 0 19.2-8.533333 19.2-19.2V0zM224 657.066667H384c6.4 0 10.666667 2.133333 14.933333 6.4 4.266667 4.266667 6.4 10.666667 6.4 14.933333 0 10.666667-8.533333 21.333333-21.333333 21.333333h-160c-6.4 0-10.666667-2.133333-14.933333-6.4-4.266667-4.266667-6.4-10.666667-6.4-14.933333 0-10.666667 10.666667-21.333333 21.333333-21.333333z m0-130.133334H384c6.4 0 10.666667 2.133333 14.933333 6.4 4.266667 4.266667 6.4 10.666667 6.4 14.933334 0 10.666667-8.533333 21.333333-21.333333 21.333333h-160c-6.4 0-10.666667-2.133333-14.933333-6.4-4.266667-4.266667-6.4-10.666667-6.4-14.933333 0-10.666667 10.666667-21.333333 21.333333-21.333334z m162.133333-87.466666h-160c-6.4 0-10.666667-2.133333-14.933333-6.4-4.266667-4.266667-6.4-10.666667-6.4-14.933334 0-10.666667 8.533333-21.333333 21.333333-21.333333h160c6.4 0 10.666667 2.133333 14.933334 6.4 4.266667 4.266667 6.4 10.666667 6.4 14.933333-2.133333 10.666667-10.666667 21.333333-21.333334 21.333334z m358.4-130.133334H226.133333c-6.4 0-10.666667-2.133333-14.933333-6.4-4.266667-4.266667-6.4-10.666667-6.4-14.933333 0-10.666667 8.533333-21.333333 21.333333-21.333333H744.533333c6.4 0 10.666667 2.133333 14.933334 6.4 4.266667 4.266667 6.4 10.666667 6.4 14.933333 0 10.666667-10.666667 21.333333-21.333334 21.333333z m-179.2-132.266666H226.133333c-6.4 0-10.666667-2.133333-14.933333-6.4-4.266667-4.266667-6.4-10.666667-6.4-14.933334 0-10.666667 8.533333-21.333333 21.333333-21.333333h339.2c6.4 0 10.666667 2.133333 14.933334 6.4 4.266667 4.266667 6.4 10.666667 6.4 14.933333 0 12.8-8.533333 21.333333-21.333334 21.333334z m155.733334 546.133333h-130.133334c-59.733333 0-108.8-49.066667-108.8-108.8v-130.133333c0-59.733333 49.066667-108.8 108.8-108.8h130.133334c59.733333 0 108.8 49.066667 108.8 108.8v130.133333c0 59.733333-49.066667 108.8-108.8 108.8z m66.133333-238.933333c0-36.266667-29.866667-66.133333-66.133333-66.133334h-40.533334c6.4 14.933333 21.333333 59.733333 19.2 96 0 0-4.266667 19.2-36.266666 19.2s-36.266667-19.2-36.266667-19.2c-2.133333-36.266667 12.8-81.066667 19.2-96h-55.466667c-36.266667 0-66.133333 29.866667-66.133333 66.133334v130.133333c0 36.266667 29.866667 66.133333 66.133333 66.133333h130.133334c36.266667 0 66.133333-29.866667 66.133333-66.133333v-130.133333z m-123.733333 153.6c-44.8 0-83.2-38.4-83.2-85.333334 0-27.733333 19.2-44.8 36.266666-53.333333-10.666667 17.066667-19.2 34.133333-19.2 55.466667 0 36.266667 29.866667 66.133333 66.133334 66.133333 36.266667 0 66.133333-29.866667 66.133333-66.133333 0-21.333333-8.533333-38.4-19.2-53.333334 14.933333 6.4 36.266667 25.6 36.266667 53.333334 0 46.933333-38.4 83.2-83.2 83.2z m0-38.4c-14.933333 0-27.733333-12.8-27.733334-27.733334s12.8-27.733333 27.733334-27.733333 27.733333 12.8 27.733333 27.733333-12.8 27.733333-27.733333 27.733334z"  horiz-adv-x="1024" />

    


  </font>
</defs>
</svg>
