<?xml version="1.0" standalone="no"?><!DOCTYPE svg PUBLIC "-//W3C//DTD SVG 1.1//EN" "http://www.w3.org/Graphics/SVG/1.1/DTD/svg11.dtd"><svg t="1513218675464" class="icon" style="" viewBox="0 0 1114 1024" version="1.1" xmlns="http://www.w3.org/2000/svg" p-id="2265" xmlns:xlink="http://www.w3.org/1999/xlink" width="69.625" height="64"><defs><style type="text/css"></style></defs><path d="M601.298824 19.847529a46.290824 46.290824 0 0 0-50.838589 6.806589L275.727059 264.493176l-218.955294-0.903529h-0.210824c-12.589176 0-24.726588 5.150118-33.641412 14.456471a50.477176 50.477176 0 0 0-14.125176 35.117176L7.830588 710.625882c0 13.221647 4.999529 25.901176 13.944471 35.237647 8.944941 9.366588 21.112471 14.607059 33.822117 14.607059h221.57553l273.377882 236.93553a46.200471 46.200471 0 0 0 50.838588 6.77647c16.745412-8.131765 27.467294-25.690353 27.467295-44.965647V64.813176c0-19.245176-10.721882-36.743529-27.52753-44.965647z m185.223529 248.410353c-23.552-11.595294-51.561412-1.024-63.006118 23.371294-11.414588 24.455529-1.505882 54.031059 21.835294 66.258824 3.011765 1.656471 74.571294 40.357647 74.571295 150.467765 0 117.699765-66.921412 156.702118-69.12 157.967059-23.612235 12.257882-33.189647 42.164706-21.38353 66.68047 8.432941 17.468235 25.238588 27.497412 42.827294 27.497412 7.168 0 14.456471-1.686588 21.293177-5.210353 4.969412-2.650353 121.916235-65.596235 121.916235-246.934588 0-174.953412-123.693176-237.507765-128.903529-240.097883z m148.720941-145.92c-22.016-14.697412-51.230118-8.011294-65.65647 14.878118-14.305882 22.859294-8.041412 53.609412 13.854117 68.668235 5.210353 3.553882 127.578353 90.262588 127.578353 306.145883 0 216.365176-117.398588 303.164235-122.066823 306.477176-21.985882 15.239529-27.888941 46.049882-13.251765 68.909177a47.284706 47.284706 0 0 0 39.785412 22.106353c9.065412 0 18.311529-2.740706 26.473411-8.372706 6.686118-4.608 164.562824-117.157647 164.562824-389.150118 0-272.504471-164.261647-384.993882-171.279059-389.662118z" fill="#f7bc73" p-id="2266"></path></svg>